# Blender v3.2.0 OBJ File: 'GrassWSnow_01.blend'
# www.blender.org
mtllib GrassWSnow_01.mtl
o GrassWSnow1_Cube.015
v 0.075614 0.000614 0.079085
v 0.125151 -0.000199 0.077155
v 0.077542 0.000199 0.128765
v 0.127079 -0.000614 0.126836
v 0.084513 0.591174 0.108561
v 0.078599 0.294475 0.109939
v 0.094802 0.294209 0.109308
v 0.096005 0.301062 0.137297
v 0.079801 0.301328 0.137928
v -0.001748 0.000000 -0.117475
v -0.001748 0.000000 -0.157394
v 0.038281 0.000000 -0.117475
v 0.038281 -0.000000 -0.157394
v 0.018267 0.475684 -0.115916
v 0.021188 0.236780 -0.115031
v 0.021188 0.236780 -0.128089
v 0.043696 0.242487 -0.128089
v 0.043696 0.242487 -0.115031
v 0.147521 -0.000000 -0.060859
v 0.119357 -0.000000 -0.043342
v 0.129955 -0.000000 -0.089102
v 0.101791 -0.000000 -0.071584
v 0.139838 0.395237 -0.075665
v 0.139181 0.196736 -0.078114
v 0.129968 0.196736 -0.072384
v 0.120091 0.201478 -0.088265
v 0.129303 0.201478 -0.093994
v -0.059235 0.000771 -0.063125
v -0.114626 -0.000249 -0.034864
v -0.087569 0.000249 -0.118680
v -0.142961 -0.000771 -0.090419
v -0.084878 0.741534 -0.092006
v -0.078868 0.369372 -0.096686
v -0.096986 0.369039 -0.087442
v -0.113082 0.377634 -0.118680
v -0.094964 0.377968 -0.127924
v -0.088941 0.000000 0.122293
v -0.132664 0.000000 0.103870
v -0.070466 0.000000 0.078448
v -0.114189 0.000000 0.060025
v -0.077996 0.565386 0.101091
v -0.075678 0.281431 0.098299
v -0.089980 0.281431 0.092273
v -0.079592 0.288213 0.067620
v -0.065290 0.288213 0.073646
v 0.055188 0.000000 0.076338
v 0.026229 0.000000 0.113921
v 0.017501 0.000000 0.047297
v -0.011459 0.000000 0.084880
v 0.037476 0.565386 0.060349
v 0.035368 0.281431 0.057397
v 0.025895 0.281431 0.069691
v 0.004704 0.288213 0.053362
v 0.014176 0.288213 0.041068
v 0.141300 -0.000000 0.025438
v 0.114211 -0.000000 0.042287
v 0.124404 -0.000000 -0.001726
v 0.097315 -0.000000 0.015123
v 0.133910 0.380145 0.011198
v 0.133277 0.189224 0.008843
v 0.124417 0.189224 0.014354
v 0.114917 0.193784 -0.000921
v 0.123777 0.193784 -0.006432
v 0.017133 0.000533 -0.037633
v 0.045078 -0.000172 -0.004969
v -0.015629 0.000172 -0.009612
v 0.012316 -0.000533 0.023052
v 0.001864 0.512613 -0.015731
v -0.002253 0.255342 -0.019014
v 0.006888 0.255112 -0.008330
v -0.011508 0.261054 0.007536
v -0.020648 0.261285 -0.003148
v -0.164520 0.000614 0.004724
v -0.209425 -0.000199 0.025731
v -0.185582 0.000199 -0.040312
v -0.230486 -0.000614 -0.019305
v -0.184164 0.591173 -0.018986
v -0.179248 0.294475 -0.022552
v -0.193936 0.294209 -0.015680
v -0.205909 0.301062 -0.041009
v -0.191221 0.301328 -0.047880
vt 0.500000 1.000000
vt 0.375000 0.750000
vt 0.500000 0.750000
vt 0.500000 0.250000
vt 0.375000 0.500000
vt 0.375000 0.250000
vt 0.500000 0.500000
vt 0.375000 0.000000
vt 0.125000 0.500000
vt 0.125000 0.750000
vt 0.500000 1.000000
vt 0.375000 0.750000
vt 0.500000 0.750000
vt 0.500000 0.250000
vt 0.375000 0.500000
vt 0.375000 0.250000
vt 0.500000 0.500000
vt 0.375000 0.000000
vt 0.125000 0.750000
vt 0.125000 0.500000
vt 0.500000 1.000000
vt 0.375000 0.750000
vt 0.500000 0.750000
vt 0.500000 0.250000
vt 0.375000 0.500000
vt 0.375000 0.250000
vt 0.500000 0.500000
vt 0.375000 0.000000
vt 0.125000 0.750000
vt 0.125000 0.500000
vt 0.500000 1.000000
vt 0.375000 0.750000
vt 0.500000 0.750000
vt 0.500000 0.250000
vt 0.375000 0.500000
vt 0.375000 0.250000
vt 0.500000 0.500000
vt 0.375000 0.000000
vt 0.125000 0.750000
vt 0.125000 0.500000
vt 0.500000 1.000000
vt 0.375000 0.750000
vt 0.500000 0.750000
vt 0.500000 0.250000
vt 0.375000 0.500000
vt 0.375000 0.250000
vt 0.500000 0.500000
vt 0.375000 0.000000
vt 0.125000 0.500000
vt 0.125000 0.750000
vt 0.500000 1.000000
vt 0.375000 0.750000
vt 0.500000 0.750000
vt 0.500000 0.250000
vt 0.375000 0.500000
vt 0.375000 0.250000
vt 0.500000 0.500000
vt 0.375000 0.000000
vt 0.125000 0.750000
vt 0.125000 0.500000
vt 0.500000 1.000000
vt 0.375000 0.750000
vt 0.500000 0.750000
vt 0.500000 0.250000
vt 0.375000 0.500000
vt 0.375000 0.250000
vt 0.500000 0.500000
vt 0.375000 0.000000
vt 0.125000 0.500000
vt 0.125000 0.750000
vt 0.500000 0.000000
vt 0.750000 0.500000
vt 0.500000 0.250000
vt 0.500000 0.500000
vt 0.500000 0.750000
vt 0.500000 1.000000
vt 0.375000 0.750000
vt 0.375000 0.500000
vt 0.375000 0.250000
vt 0.375000 0.000000
vt 0.125000 0.500000
vt 0.125000 0.750000
vt 0.500000 1.000000
vt 0.375000 0.750000
vt 0.500000 0.750000
vt 0.500000 0.250000
vt 0.375000 0.500000
vt 0.375000 0.250000
vt 0.500000 0.500000
vt 0.375000 0.000000
vt 0.125000 0.750000
vt 0.125000 0.500000
vt 0.375000 1.000000
vt 0.500000 0.000000
vt 0.375000 1.000000
vt 0.500000 0.000000
vt 0.375000 1.000000
vt 0.500000 0.000000
vt 0.375000 1.000000
vt 0.500000 0.000000
vt 0.375000 1.000000
vt 0.500000 0.000000
vt 0.375000 1.000000
vt 0.500000 0.000000
vt 0.375000 1.000000
vt 0.500000 0.000000
vt 0.375000 1.000000
vt 0.375000 1.000000
vt 0.500000 0.000000
vt 0.750000 0.500000
vt 0.750000 0.500000
vt 0.750000 0.500000
vt 0.750000 0.500000
vt 0.750000 0.500000
vt 0.750000 0.500000
vt 0.750000 0.500000
vt 0.750000 0.500000
vn -0.9991 0.0062 0.0414
vn 0.9936 0.1065 -0.0377
vn 0.0384 -0.0307 0.9988
vn -0.0370 0.1047 -0.9938
vn -0.0167 -0.9998 -0.0077
vn 0.0026 -0.0101 0.9999
vn 0.0000 0.1228 -0.9924
vn 0.9998 -0.0223 0.0000
vn -0.9953 0.0964 0.0000
vn -0.0000 -1.0000 -0.0000
vn 0.8477 -0.0101 -0.5303
vn -0.8427 0.1228 0.5242
vn -0.5280 -0.0223 -0.8489
vn 0.5257 0.0964 0.8452
vn 0.8896 0.0062 -0.4567
vn -0.8862 0.1065 0.4510
vn -0.4538 -0.0307 -0.8906
vn 0.4504 0.1047 0.8866
vn 0.0184 -0.9998 0.0000
vn 0.9225 -0.0101 0.3859
vn -0.9146 0.1228 -0.3854
vn 0.3882 -0.0223 -0.9213
vn -0.3865 0.0964 0.9172
vn 0.6083 -0.0101 -0.7936
vn -0.6057 0.1228 0.7861
vn -0.7919 -0.0223 -0.6102
vn 0.7884 0.0964 0.6075
vn 0.7598 -0.0039 -0.6501
vn -0.7550 0.1001 0.6481
vn 0.6591 0.0345 0.7513
vn -0.6520 0.0062 -0.7582
vn -0.6493 0.0201 -0.7603
vn 0.6456 0.1065 0.7562
vn -0.7598 -0.0307 0.6494
vn 0.7568 0.1047 -0.6452
vn -0.0043 -0.9998 -0.0179
vn 0.9047 0.0062 -0.4260
vn -0.9011 0.1065 0.4204
vn -0.4231 -0.0307 -0.9056
vn 0.4199 0.1047 0.9015
vn 0.0184 -0.9998 0.0006
vn -0.9992 0.0061 0.0388
vn 0.9922 0.1046 -0.0682
vn -0.0000 -0.0103 0.9999
vn -0.0306 0.1206 -0.9922
vn 0.8491 -0.0103 -0.5281
vn -0.8264 0.1206 0.5500
vn 0.8908 0.0061 -0.4544
vn -0.8721 0.1046 0.4781
vn 0.9215 -0.0103 0.3883
vn -0.9262 0.1206 -0.3571
vn 0.6103 -0.0103 -0.7921
vn -0.5814 0.1206 0.8046
vn -0.6500 0.0061 -0.7599
vn 0.6687 0.1046 0.7361
vn 0.9058 0.0061 -0.4237
vn -0.8879 0.1046 0.4480
vn -0.0390 -0.0039 -0.9992
vn 0.0404 0.1001 0.9942
vn 0.9981 0.0345 -0.0513
vn -0.9991 0.0201 0.0380
vn -0.9999 -0.0122 0.0000
vn 0.9941 0.1084 0.0000
vn -0.0129 0.0507 -0.9986
vn -0.0009 0.0037 1.0000
vn 0.5281 -0.0122 0.8491
vn -0.5250 0.1084 -0.8441
vn -0.8412 0.0507 0.5384
vn 0.8496 0.0037 -0.5274
vn 0.4545 -0.0039 0.8907
vn -0.4536 0.1001 -0.8855
vn -0.8845 0.0345 0.4652
vn 0.8910 0.0201 -0.4536
vn -0.3883 -0.0122 0.9215
vn 0.3860 0.1084 -0.9161
vn -0.9253 0.0507 -0.3759
vn 0.9212 0.0037 0.3892
vn 0.7921 -0.0122 0.6103
vn -0.7874 0.1084 -0.6068
vn -0.5993 0.0507 0.7989
vn 0.6111 0.0037 -0.7915
vn 0.4238 -0.0039 0.9057
vn -0.4231 0.1001 -0.9005
vn -0.8999 0.0345 0.4347
vn 0.9060 0.0201 -0.4228
usemtl Grass
s off
f 6/1/1 3/2/1 9/3/1
f 7/4/2 4/5/2 2/6/2
f 8/7/3 3/2/3 4/5/3
f 1/8/4 7/4/4 2/6/4
f 2/9/5 3/2/5 1/10/5
f 15/11/6 12/12/6 18/13/6
f 16/14/7 13/15/7 11/16/7
f 17/17/8 12/12/8 13/15/8
f 10/18/9 16/14/9 11/16/9
f 13/15/10 10/19/10 11/20/10
f 24/21/11 21/22/11 27/23/11
f 25/24/12 22/25/12 20/26/12
f 26/27/13 21/22/13 22/25/13
f 19/28/14 25/24/14 20/26/14
f 22/25/10 19/29/10 20/30/10
f 33/31/15 30/32/15 36/33/15
f 34/34/16 31/35/16 29/36/16
f 35/37/17 30/32/17 31/35/17
f 28/38/18 34/34/18 29/36/18
f 31/35/19 28/39/19 29/40/19
f 42/41/20 39/42/20 45/43/20
f 43/44/21 40/45/21 38/46/21
f 44/47/22 39/42/22 40/45/22
f 37/48/23 43/44/23 38/46/23
f 38/49/10 39/42/10 37/50/10
f 51/51/24 48/52/24 54/53/24
f 52/54/25 49/55/25 47/56/25
f 53/57/26 48/52/26 49/55/26
f 46/58/27 52/54/27 47/56/27
f 49/55/10 46/59/10 47/60/10
f 60/61/11 57/62/11 63/63/11
f 61/64/12 58/65/12 56/66/12
f 62/67/13 57/62/13 58/65/13
f 55/68/14 61/64/14 56/66/14
f 56/69/10 57/62/10 55/70/10
f 69/71/28 68/72/28 70/73/28
f 71/74/29 68/72/29 72/75/29
f 70/73/30 68/72/30 71/74/30
f 69/76/31 66/77/31 72/75/31
f 72/75/32 68/72/32 69/76/32
f 70/73/33 67/78/33 65/79/33
f 71/74/34 66/77/34 67/78/34
f 64/80/35 70/73/35 65/79/35
f 65/81/36 66/77/36 64/82/36
f 78/83/37 75/84/37 81/85/37
f 79/86/38 76/87/38 74/88/38
f 80/89/39 75/84/39 76/87/39
f 73/90/40 79/86/40 74/88/40
f 76/87/41 73/91/41 74/92/41
f 6/1/42 1/93/42 3/2/42
f 7/4/43 8/7/43 4/5/43
f 8/7/3 9/3/3 3/2/3
f 1/8/4 6/94/4 7/4/4
f 2/9/5 4/5/5 3/2/5
f 15/11/44 10/95/44 12/12/44
f 16/14/45 17/17/45 13/15/45
f 17/17/8 18/13/8 12/12/8
f 10/18/9 15/96/9 16/14/9
f 13/15/10 12/12/10 10/19/10
f 24/21/46 19/97/46 21/22/46
f 25/24/47 26/27/47 22/25/47
f 26/27/13 27/23/13 21/22/13
f 19/28/14 24/98/14 25/24/14
f 22/25/10 21/22/10 19/29/10
f 33/31/48 28/99/48 30/32/48
f 34/34/49 35/37/49 31/35/49
f 35/37/17 36/33/17 30/32/17
f 28/38/18 33/100/18 34/34/18
f 31/35/19 30/32/19 28/39/19
f 42/41/50 37/101/50 39/42/50
f 43/44/51 44/47/51 40/45/51
f 44/47/22 45/43/22 39/42/22
f 37/48/23 42/102/23 43/44/23
f 38/49/10 40/45/10 39/42/10
f 51/51/52 46/103/52 48/52/52
f 52/54/53 53/57/53 49/55/53
f 53/57/26 54/53/26 48/52/26
f 46/58/27 51/104/27 52/54/27
f 49/55/10 48/52/10 46/59/10
f 60/61/46 55/105/46 57/62/46
f 61/64/47 62/67/47 58/65/47
f 62/67/13 63/63/13 57/62/13
f 55/68/14 60/106/14 61/64/14
f 56/69/10 58/65/10 57/62/10
f 69/76/54 64/107/54 66/77/54
f 70/73/55 71/74/55 67/78/55
f 71/74/34 72/75/34 66/77/34
f 64/80/35 69/71/35 70/73/35
f 65/81/36 67/78/36 66/77/36
f 78/83/56 73/108/56 75/84/56
f 79/86/57 80/89/57 76/87/57
f 80/89/39 81/85/39 75/84/39
f 73/90/40 78/109/40 79/86/40
f 76/87/41 75/84/41 73/91/41
usemtl SnowGrass_01
f 6/94/58 5/110/58 7/4/58
f 8/7/59 5/110/59 9/3/59
f 7/4/60 5/110/60 8/7/60
f 9/3/61 5/110/61 6/1/61
f 15/96/62 14/111/62 16/14/62
f 17/17/63 14/111/63 18/13/63
f 16/14/64 14/111/64 17/17/64
f 18/13/65 14/111/65 15/11/65
f 24/98/66 23/112/66 25/24/66
f 26/27/67 23/112/67 27/23/67
f 25/24/68 23/112/68 26/27/68
f 27/23/69 23/112/69 24/21/69
f 33/100/70 32/113/70 34/34/70
f 35/37/71 32/113/71 36/33/71
f 34/34/72 32/113/72 35/37/72
f 36/33/73 32/113/73 33/31/73
f 42/102/74 41/114/74 43/44/74
f 44/47/75 41/114/75 45/43/75
f 43/44/76 41/114/76 44/47/76
f 45/43/77 41/114/77 42/41/77
f 51/104/78 50/115/78 52/54/78
f 53/57/79 50/115/79 54/53/79
f 52/54/80 50/115/80 53/57/80
f 54/53/81 50/115/81 51/51/81
f 60/106/66 59/116/66 61/64/66
f 62/67/67 59/116/67 63/63/67
f 61/64/68 59/116/68 62/67/68
f 63/63/69 59/116/69 60/61/69
f 78/109/82 77/117/82 79/86/82
f 80/89/83 77/117/83 81/85/83
f 79/86/84 77/117/84 80/89/84
f 81/85/85 77/117/85 78/83/85
