# Blender v3.2.0 OBJ File: 'TrunkWSnow_01.blend'
# www.blender.org
mtllib TrunkWSnow_01.mtl
o TrunkWSnow_01_Circle
v -2.075211 -0.021125 -0.522963
v -1.849936 0.367356 0.011736
v -1.915431 -0.649702 -0.318726
v -2.075211 -0.649702 0.342198
v -1.855618 -0.021125 0.546435
v 2.388184 -0.078381 -0.345019
v 2.585306 0.181171 0.012225
v 2.585306 -0.498347 -0.498438
v 2.585306 -0.498347 0.233014
v 2.447320 -0.078381 0.369469
v -2.075211 -0.062698 -0.382827
v -1.849936 0.221506 0.021479
v -1.915431 -0.531443 -0.232810
v -2.075211 -0.529458 0.259084
v -1.855618 -0.056578 0.404626
v 2.388184 -0.108559 -0.252137
v 2.585306 0.083803 0.019771
v 2.585306 -0.419336 -0.441036
v 2.585306 -0.415136 0.181888
v 2.447320 -0.108559 0.276586
v -0.816250 0.166994 0.011945
v -0.874819 -0.082833 0.322515
v -0.899528 -0.487063 0.191173
v -0.840462 -0.487063 -0.200572
v -0.899528 -0.082833 -0.331914
v 2.220487 0.285786 -0.292068
v 2.267380 0.321646 0.109831
v 2.540427 0.166200 0.192357
v 2.567141 0.017222 -0.088619
v 2.508468 0.166260 -0.265097
v 2.248060 0.020815 -0.403348
v 1.840522 0.256160 0.233712
v 2.293845 0.144790 0.373581
v 1.979002 0.018577 0.271025
v 1.968219 -0.129817 0.098767
v 2.122143 -0.133120 -0.031767
v 2.443889 -0.042342 0.194552
v 1.557517 -0.280533 0.011099
v 1.552165 -0.267957 -0.105437
v 1.478216 -0.214027 0.171058
v 1.403724 -0.154317 -0.288125
v 0.924772 0.044133 -0.453382
v 1.285636 0.207778 -0.297694
v 1.623768 0.311035 -0.061911
v 1.511865 0.351405 0.096692
v 1.453126 0.186074 0.322301
v 1.697155 -0.107489 0.259781
v 0.799924 0.045314 0.427846
v 0.677948 -0.175880 -0.074442
v 0.631090 -0.178460 0.107653
v 0.528287 -0.067798 -0.373018
v -0.415330 -0.043349 -0.332631
v 0.590508 0.299297 -0.263899
v 0.742487 0.434446 -0.024270
v -0.639655 0.207279 0.297722
v 0.560721 0.288769 0.241235
v -0.734925 -0.226470 0.169424
v 0.547025 -0.103405 0.273726
v -0.720369 -0.001085 0.391983
v -0.287318 -0.093181 0.409940
v -0.860202 0.083162 0.370712
v -1.036002 0.247561 0.365611
v -0.631038 0.210209 0.181751
v -0.790074 0.113499 -0.149764
v -1.224071 0.174633 -0.189347
v -1.636536 0.216650 -0.367778
v -1.641696 0.005881 -0.581703
v -1.668671 -0.101629 -0.477363
v -2.020496 0.023063 -0.471998
v -1.897873 0.171931 -0.468802
v -2.121228 0.053251 -0.298964
v -2.168677 0.284463 -0.128158
v -1.986018 0.377731 -0.302647
v -2.033549 0.365361 -0.093054
v -1.792414 0.409803 -0.036520
v -1.442024 0.332641 0.402247
v -1.711339 0.291891 0.546136
v -1.279058 0.006727 0.476555
v -1.345791 -0.113990 0.416197
v -1.571447 -0.132104 0.209172
v -1.952873 0.100053 -0.031836
v -1.885434 0.170695 0.442760
v -1.925352 0.381030 0.401637
v -1.532408 -0.114422 -0.162937
v -1.236810 -0.163757 -0.184824
v -1.171865 -0.014738 -0.341869
v -0.935392 -0.276450 0.000774
v -0.796695 -0.184199 -0.168359
v -0.801549 -0.070685 -0.276224
v -1.235024 -0.265595 0.166619
v -1.041030 0.261574 0.116064
v -1.396997 0.380255 0.012640
v 1.692257 0.067589 -0.353006
vt 0.000000 0.000000
vt 0.000000 0.000000
vt 0.000000 0.000000
vt 0.000000 0.000000
vt 0.000000 0.000000
vt 0.000000 0.000000
vt 0.000000 0.000000
vt 0.000000 0.000000
vt 0.000000 0.000000
vt 0.000000 0.000000
vt 0.000000 0.000000
vt 0.000000 0.000000
vt 0.000000 0.000000
vt 0.000000 0.000000
vt 0.000000 0.000000
vt 0.000000 0.000000
vt 0.000000 0.000000
vt 0.000000 0.000000
vt 0.000000 0.000000
vt 0.000000 0.000000
vt 0.000000 0.000000
vt 0.000000 0.000000
vt 0.000000 0.000000
vt 0.000000 0.000000
vt 0.000000 0.000000
vt 0.000000 0.000000
vt 0.000000 0.000000
vt 0.000000 0.000000
vt 0.000000 0.000000
vt 0.000000 0.000000
vt 0.000000 0.000000
vt 0.000000 0.000000
vt 0.000000 0.000000
vt 0.000000 0.000000
vt 0.000000 0.000000
vt 0.000000 0.000000
vt 0.000000 0.000000
vt 0.000000 0.000000
vt 0.000000 0.000000
vt 0.000000 0.000000
vt 0.000000 0.000000
vt 0.000000 0.000000
vt 0.000000 0.000000
vt 0.000000 0.000000
vt 0.000000 0.000000
vt 0.000000 0.000000
vt 0.000000 0.000000
vt 0.000000 0.000000
vt 0.000000 0.000000
vt 0.000000 0.000000
vt 0.000000 0.000000
vt 0.000000 0.000000
vt 0.000000 0.000000
vt 0.000000 0.000000
vt 0.000000 0.000000
vt 0.000000 0.000000
vt 0.000000 0.000000
vt 0.000000 0.000000
vt 0.000000 0.000000
vt 0.000000 0.000000
vt 0.000000 0.000000
vt 0.000000 0.000000
vt 0.000000 0.000000
vt 0.000000 0.000000
vt 0.000000 0.000000
vt 0.000000 0.000000
vt 0.000000 0.000000
vt 0.000000 0.000000
vt 0.000000 0.000000
vt 0.000000 0.000000
vt 0.000000 0.000000
vt 0.000000 0.000000
vt 0.000000 0.000000
vt 0.000000 0.000000
vt 0.000000 0.000000
vt 0.000000 0.000000
vt 0.000000 0.000000
vt 0.000000 0.000000
vt 0.000000 0.000000
vt 0.000000 0.000000
vt 0.000000 0.000000
vt 0.000000 0.000000
vt 0.000000 0.000000
vt 0.000000 0.000000
vt 0.000000 0.000000
vt 0.000000 0.000000
vt 0.000000 0.000000
vt 0.000000 0.000000
vt 0.000000 0.000000
vt 0.000000 0.000000
vt 0.000000 0.000000
vt 0.000000 0.000000
vt 0.000000 0.000000
vn 0.1822 0.7945 0.5792
vn 0.1472 -0.9889 0.0222
vn 0.1517 0.7818 -0.6048
vn 0.1674 -0.3571 0.9189
vn 0.1403 -0.2735 -0.9516
vn 0.8756 -0.4595 -0.1493
vn 0.5285 0.4990 -0.6868
vn 1.0000 0.0000 0.0000
vn 0.8850 0.4428 -0.1439
vn 0.9251 0.0293 0.3786
vn -0.8823 0.0314 0.4696
vn -0.9308 -0.3505 -0.1040
vn -0.9581 0.1683 -0.2316
vn -0.9227 0.2193 0.3172
vn -0.9999 0.0109 -0.0027
vn -0.0034 -0.3095 -0.9509
vn -0.0124 -0.3127 0.9498
vn -0.0033 0.8099 -0.5866
vn -0.0033 -1.0000 0.0000
vn -0.0099 0.7801 0.6256
vn -0.0207 0.3062 0.9517
vn -0.0202 0.9998 -0.0067
vn -0.0086 0.2916 -0.9565
vn -0.0147 -0.7777 -0.6284
vn -0.0211 -0.8089 0.5876
vn -0.0466 -0.7740 -0.6314
vn -0.0710 0.3122 -0.9474
vn -0.0370 0.9992 -0.0160
vn -0.0411 0.3033 0.9520
vn -0.0393 -0.8070 0.5892
vn 0.1466 0.7571 0.6367
vn 0.1413 -0.9894 0.0341
vn 0.1413 0.7717 -0.6202
vn 0.1925 -0.3139 0.9297
vn 0.1474 -0.2861 -0.9468
vn 0.8233 -0.0439 -0.5659
vn 0.8736 0.4628 0.1504
vn 0.9251 0.1988 0.3236
vn 0.8850 -0.4428 0.1439
vn -0.9188 0.3783 0.1122
vn -0.9581 -0.1683 0.2316
vn -0.9305 -0.2083 -0.3014
vn -0.8877 0.4466 -0.1117
vn -0.9999 -0.0010 -0.0156
vn -0.0814 0.3081 -0.9479
vn -0.0130 -0.3083 0.9512
vn -0.0034 0.8094 -0.5872
vn -0.0032 -1.0000 -0.0005
vn -0.0034 0.8096 0.5869
vn 0.0708 -0.4849 0.8717
vn -0.0206 0.9998 -0.0031
vn -0.0107 0.3096 -0.9508
vn -0.0181 -0.7956 -0.6056
vn -0.0206 -0.8065 0.5909
vn -0.0707 -0.8068 -0.5866
vn -0.0662 0.3215 -0.9446
vn -0.0411 0.9991 -0.0062
vn -0.0363 0.2933 0.9553
vn -0.0369 -0.8042 0.5932
vn 0.2475 0.3969 -0.8838
vn -0.0514 0.3821 -0.9227
vn 0.0333 0.8316 0.5543
vn -0.3004 -0.0254 0.9535
vn 0.1404 -0.9717 0.1901
vn -0.1078 -0.9890 -0.1018
vn 0.3640 -0.9241 -0.1164
vn 0.1729 -0.0656 0.9828
vn -0.0075 -0.7134 0.7007
vn 0.0623 -0.9981 0.0019
vn -0.0511 -0.6891 -0.7229
vn -0.1447 0.5848 -0.7981
vn 0.1869 0.2295 0.9552
vn 0.3648 0.6588 -0.6579
vn 0.1690 0.6620 -0.7302
vn -0.6688 0.5614 -0.4873
vn -0.1849 0.9826 0.0161
vn 0.3373 0.8736 -0.3507
vn -0.1774 -0.4787 0.8599
vn -0.1520 -0.3735 0.9151
vn -0.8992 -0.0868 0.4288
vn -0.2915 -0.9526 0.0876
vn -0.3343 -0.9420 -0.0303
vn 0.2047 -0.9704 -0.1282
vn -0.1780 -0.9454 -0.2730
vn -0.3766 -0.9226 -0.0834
vn -0.2946 -0.8692 0.3972
vn 0.1221 0.1610 0.9794
vn 0.0581 0.9901 0.1277
vn -0.5285 0.8443 0.0889
vn -0.6774 -0.5220 0.5184
vn 0.3582 0.6435 -0.6764
vn 0.0070 0.4976 0.8674
vn 0.1396 0.4539 0.8801
vn 0.0548 -0.9131 0.4041
vn -0.1592 0.9872 0.0131
vn -0.0115 0.8080 0.5891
vn 0.2923 0.9556 -0.0370
vn 0.2534 -0.7155 -0.6510
vn 0.1300 -0.4302 -0.8933
vn 0.2264 -0.8545 0.4675
vn 0.2119 -0.8540 0.4752
vn 0.3028 -0.7314 0.6111
vn 0.5861 -0.2632 0.7663
vn 0.6068 -0.4963 -0.6209
vn 0.2734 -0.9179 -0.2876
vn 0.3044 0.8050 0.5092
vn -0.2224 0.7215 -0.6557
vn -0.1134 -0.9037 -0.4128
vn 0.1726 0.2502 0.9527
vn 0.0885 0.5771 -0.8118
vn 0.0887 0.8594 -0.5035
vn 0.0459 0.6336 -0.7723
vn 0.0171 0.8716 0.4899
vn -0.0673 -0.9215 0.3824
vn -0.0370 0.5848 0.8103
vn 0.1715 0.9206 -0.3509
vn -0.4750 -0.8752 -0.0914
vn 0.1226 0.8814 -0.4562
vn -0.3875 -0.7804 0.4907
vn -0.5987 -0.7755 0.2005
vn -0.6698 0.2712 -0.6913
vn -0.1851 -0.9441 -0.2726
vn 0.8685 -0.3990 0.2941
vn 0.0080 -0.7579 0.6524
vn 0.0341 -0.8889 -0.4569
vn 0.0250 -0.6696 0.7423
vn 0.0151 -0.6180 -0.7860
vn -0.0049 -0.6889 -0.7248
vn -0.0481 -0.7291 -0.6828
vn -0.1475 0.9663 -0.2111
vn -0.2042 0.9024 -0.3794
vn 0.0512 -0.9001 0.4327
vn -0.1752 -0.6860 0.7062
vn -0.1582 0.5656 -0.8094
vn 0.1488 0.7026 -0.6958
vn -0.2606 0.2347 -0.9365
vn -0.5006 0.8634 -0.0626
vn -0.1833 0.9830 0.0089
vn 0.0990 0.9905 0.0951
vn -0.5408 0.0614 0.8389
vn -0.6868 -0.6984 0.2015
vn -0.3317 -0.8713 0.3617
vn -0.1664 -0.6800 -0.7141
vn -0.0220 -0.8700 -0.4926
vn 0.0753 -0.9769 0.2000
vn 0.2739 0.9503 0.1478
vn 0.0447 -0.9711 0.2346
vn 0.2255 0.1055 0.9685
vn 0.3006 0.6081 0.7348
vn 0.1622 0.9192 -0.3589
vn -0.2395 -0.6446 -0.7261
vn -0.1091 -0.8814 -0.4596
vn 0.3111 0.7862 -0.5340
vn 0.2990 -0.7022 -0.6462
vn -0.0258 0.0733 0.9970
vn -0.1139 -0.9925 -0.0434
vn -0.0499 -0.4599 -0.8866
vn 0.0380 0.8013 0.5971
vn 0.0901 -0.7865 0.6110
vn 0.3904 0.9119 -0.1269
vn -0.0657 -0.9325 0.3551
vn 0.0321 -0.6774 0.7350
vn 0.0397 -0.1765 0.9835
vn -0.0795 0.9680 0.2379
vn 0.0948 0.8402 -0.5340
vn 0.9528 0.2963 -0.0665
vn 0.3121 -0.9479 -0.0635
vn 0.2862 -0.5924 -0.7531
vn 0.1849 0.7748 -0.6045
vn 0.0075 0.9959 -0.0897
vn 0.1100 0.9925 0.0535
vn -0.1100 0.4957 -0.8615
vn -0.0386 0.8869 0.4603
vn -0.0024 0.6069 0.7948
vn 0.0418 0.3093 0.9501
vn 0.2303 -0.5341 0.8135
vn 0.2268 0.6481 -0.7270
vn 0.0627 -0.8404 0.5383
vn -0.7346 0.2992 -0.6090
vn 0.1526 0.5529 -0.8191
vn 0.0897 0.9016 0.4233
vn 0.1921 -0.9489 0.2505
vn 0.0277 -0.9354 -0.3525
vn 0.0116 -0.7277 -0.6857
vn 0.2092 0.9766 0.0506
vn 0.3986 0.7911 -0.4641
vn -0.0635 -0.9482 -0.3114
vn 0.5024 0.8639 -0.0350
vn 0.1304 0.9789 -0.1572
vn 0.1189 0.9923 0.0339
vn 0.0969 -0.7025 0.7051
usemtl Trunk_01
s off
f 22/1/1 2/2/1 5/3/1
f 23/4/2 3/5/2 24/6/2
f 25/7/3 2/2/3 21/8/3
f 23/4/4 5/3/4 4/9/4
f 25/7/5 3/5/5 1/10/5
f 7/11/6 16/12/6 6/13/6
f 6/13/7 18/14/7 8/15/7
f 9/16/8 18/14/8 19/17/8
f 10/18/9 19/17/9 20/19/9
f 10/18/10 17/20/10 7/11/10
f 2/2/11 11/21/11 12/22/11
f 1/10/12 13/23/12 11/21/12
f 4/9/13 13/23/13 3/5/13
f 5/3/14 14/24/14 4/9/14
f 2/2/15 15/25/15 5/3/15
f 6/13/16 24/6/16 25/7/16
f 10/18/17 23/4/17 9/16/17
f 6/13/18 21/8/18 7/11/18
f 9/16/19 24/6/19 8/15/19
f 10/18/20 21/8/20 22/1/20
f 24/6/21 16/12/21 25/7/21
f 24/6/22 19/17/22 18/14/22
f 23/4/23 20/19/23 19/17/23
f 21/8/24 20/19/24 22/1/24
f 21/8/25 16/12/25 17/20/25
f 22/1/26 12/22/26 21/8/26
f 23/4/27 15/25/27 22/1/27
f 23/4/28 13/23/28 14/24/28
f 25/7/29 13/23/29 24/6/29
f 25/7/30 12/22/30 11/21/30
f 22/1/31 21/8/31 2/2/31
f 23/4/32 4/9/32 3/5/32
f 25/7/33 1/10/33 2/2/33
f 23/4/34 22/1/34 5/3/34
f 25/7/35 24/6/35 3/5/35
f 7/11/36 17/20/36 16/12/36
f 6/13/37 16/12/37 18/14/37
f 9/16/8 8/15/8 18/14/8
f 10/18/38 9/16/38 19/17/38
f 10/18/39 20/19/39 17/20/39
f 2/2/40 1/10/40 11/21/40
f 1/10/41 3/5/41 13/23/41
f 4/9/42 14/24/42 13/23/42
f 5/3/43 15/25/43 14/24/43
f 2/2/44 12/22/44 15/25/44
f 6/13/45 8/15/45 24/6/45
f 10/18/46 22/1/46 23/4/46
f 6/13/47 25/7/47 21/8/47
f 9/16/48 23/4/48 24/6/48
f 10/18/49 7/11/49 21/8/49
f 24/6/50 18/14/50 16/12/50
f 24/6/51 23/4/51 19/17/51
f 23/4/52 22/1/52 20/19/52
f 21/8/53 17/20/53 20/19/53
f 21/8/54 25/7/54 16/12/54
f 22/1/55 15/25/55 12/22/55
f 23/4/56 14/24/56 15/25/56
f 23/4/57 24/6/57 13/23/57
f 25/7/58 11/21/58 13/23/58
f 25/7/59 21/8/59 12/22/59
usemtl Snow1Trunk_01
f 26/26/60 30/27/60 31/28/60
f 26/26/61 31/28/61 93/29/61
f 27/30/62 32/31/62 33/32/62
f 32/31/63 34/33/63 33/32/63
f 36/34/64 37/35/64 35/36/64
f 39/37/65 38/38/65 49/39/65
f 39/37/66 35/36/66 38/38/66
f 46/40/67 48/41/67 47/42/67
f 40/43/68 48/41/68 58/44/68
f 49/39/69 50/45/69 87/46/69
f 89/47/70 51/48/70 88/49/70
f 53/50/71 52/51/71 64/52/71
f 61/53/72 55/54/72 62/55/72
f 66/56/73 86/57/73 67/58/73
f 73/59/74 66/56/74 70/60/74
f 69/61/75 71/62/75 70/60/75
f 75/63/76 73/59/76 74/64/76
f 73/59/77 75/63/77 66/56/77
f 78/65/78 77/66/78 82/67/78
f 78/65/79 82/67/79 79/68/79
f 83/69/80 72/70/80 82/67/80
f 68/71/81 84/72/81 71/62/81
f 68/71/82 71/62/82 69/61/82
f 68/71/83 86/57/83 84/72/83
f 85/73/84 90/74/84 84/72/84
f 84/72/85 90/74/85 80/75/85
f 90/74/86 79/68/86 80/75/86
f 61/53/87 62/55/87 76/76/87
f 92/77/88 75/63/88 76/76/88
f 72/70/89 83/69/89 74/64/89
f 72/70/90 71/62/90 81/78/90
f 65/79/91 86/57/91 66/56/91
f 56/80/92 55/54/92 61/53/92
f 59/81/93 61/53/93 78/65/93
f 58/44/94 60/82/94 57/83/94
f 54/84/95 63/85/95 55/54/95
f 32/31/96 45/86/96 46/40/96
f 32/31/97 44/87/97 45/86/97
f 41/88/98 36/34/98 39/37/98
f 93/29/99 41/88/99 42/89/99
f 38/38/100 47/42/100 40/43/100
f 38/38/101 35/36/101 47/42/101
f 47/42/102 35/36/102 34/33/102
f 28/90/103 33/32/103 37/35/103
f 29/91/104 31/28/104 30/27/104
f 29/91/105 36/34/105 31/28/105
f 33/32/106 28/90/106 27/30/106
f 93/29/107 44/87/107 26/26/107
f 31/28/108 36/34/108 93/29/108
f 34/33/109 32/31/109 46/40/109
f 43/92/110 93/29/110 42/89/110
f 43/92/111 53/50/111 44/87/111
f 43/92/112 42/89/112 53/50/112
f 54/84/113 56/80/113 45/86/113
f 50/45/114 40/43/114 58/44/114
f 56/80/115 59/81/115 48/41/115
f 63/85/116 64/52/116 91/93/116
f 81/78/117 84/72/117 80/75/117
f 75/63/118 92/77/118 66/56/118
f 80/75/119 79/68/119 82/67/119
f 81/78/120 80/75/120 82/67/120
f 71/62/121 73/59/121 70/60/121
f 85/73/122 87/46/122 90/74/122
f 37/35/123 29/91/123 28/90/123
f 35/36/124 37/35/124 34/33/124
f 88/49/125 49/39/125 87/46/125
f 47/42/126 48/41/126 40/43/126
f 51/48/127 42/89/127 41/88/127
f 85/73/128 89/47/128 88/49/128
f 52/51/129 51/48/129 89/47/129
f 53/50/130 64/52/130 63/85/130
f 53/50/131 63/85/131 54/84/131
f 57/83/132 50/45/132 58/44/132
f 57/83/133 60/82/133 59/81/133
f 64/52/134 52/51/134 89/47/134
f 70/60/135 66/56/135 67/58/135
f 69/61/136 70/60/136 67/58/136
f 72/70/137 74/64/137 73/59/137
f 75/63/138 74/64/138 83/69/138
f 76/76/139 75/63/139 83/69/139
f 77/66/140 83/69/140 82/67/140
f 72/70/141 81/78/141 82/67/141
f 81/78/142 71/62/142 84/72/142
f 86/57/143 85/73/143 84/72/143
f 85/73/144 88/49/144 87/46/144
f 90/74/145 87/46/145 57/83/145
f 76/76/146 91/93/146 92/77/146
f 87/46/147 50/45/147 57/83/147
f 78/65/148 61/53/148 77/66/148
f 77/66/149 61/53/149 76/76/149
f 65/79/150 91/93/150 64/52/150
f 67/58/151 68/71/151 69/61/151
f 49/39/152 41/88/152 39/37/152
f 65/79/153 66/56/153 92/77/153
f 86/57/154 68/71/154 67/58/154
f 48/41/155 59/81/155 60/82/155
f 49/39/156 38/38/156 50/45/156
f 52/51/157 42/89/157 51/48/157
f 46/40/158 45/86/158 56/80/158
f 48/41/159 60/82/159 58/44/159
f 27/30/160 30/27/160 26/26/160
f 38/38/161 40/43/161 50/45/161
f 37/35/162 33/32/162 34/33/162
f 34/33/163 46/40/163 47/42/163
f 32/31/164 27/30/164 44/87/164
f 54/84/165 44/87/165 53/50/165
f 29/91/166 30/27/166 28/90/166
f 36/34/167 29/91/167 37/35/167
f 36/34/168 41/88/168 93/29/168
f 44/87/169 93/29/169 43/92/169
f 27/30/170 26/26/170 44/87/170
f 55/54/171 91/93/171 62/55/171
f 42/89/172 52/51/172 53/50/172
f 54/84/173 55/54/173 56/80/173
f 46/40/174 56/80/174 48/41/174
f 56/80/175 61/53/175 59/81/175
f 57/83/176 78/65/176 79/68/176
f 86/57/177 65/79/177 89/47/177
f 90/74/178 57/83/178 79/68/178
f 72/70/179 73/59/179 71/62/179
f 65/79/180 64/52/180 89/47/180
f 77/66/181 76/76/181 83/69/181
f 39/37/182 36/34/182 35/36/182
f 88/49/183 51/48/183 49/39/183
f 85/73/184 86/57/184 89/47/184
f 76/76/185 62/55/185 91/93/185
f 65/79/186 92/77/186 91/93/186
f 49/39/187 51/48/187 41/88/187
f 27/30/188 28/90/188 30/27/188
f 54/84/189 45/86/189 44/87/189
f 55/54/190 63/85/190 91/93/190
f 57/83/191 59/81/191 78/65/191
